<mxfile host="drawio-plugin" modified="2024-03-16T19:52:25.945Z" agent="5.0 (X11; Linux x86_64) AppleWebKit/537.36 (KHTML, like Gecko) Chrome/111.0.0.0 Safari/537.36" etag="3c-8d7j8ew5ESVAYBbbp" version="20.5.3" type="embed"><diagram id="23iRSUPoRavnBvh4doch" name="Page-1"><mxGraphModel dx="732" dy="771" grid="1" gridSize="10" guides="1" tooltips="1" connect="1" arrows="1" fold="1" page="1" pageScale="1" pageWidth="827" pageHeight="1169" math="0" shadow="0"><root><mxCell id="0"/><mxCell id="1" parent="0"/><mxCell id="2" value="" style="shape=folder;fontStyle=1;spacingTop=10;tabWidth=40;tabHeight=14;tabPosition=left;html=1;" vertex="1" parent="1"><mxGeometry x="190" y="150" width="480" height="270" as="geometry"/></mxCell><mxCell id="16" style="edgeStyle=orthogonalEdgeStyle;rounded=0;orthogonalLoop=1;jettySize=auto;html=1;startArrow=none;startFill=0;endArrow=none;endFill=0;" edge="1" parent="1" source="3" target="12"><mxGeometry relative="1" as="geometry"/></mxCell><mxCell id="3" value="SteeringInput&#10;Device" style="shape=module;align=left;spacingLeft=20;align=center;verticalAlign=top;fontStyle=2" vertex="1" parent="1"><mxGeometry x="210" y="220" width="100" height="50" as="geometry"/></mxCell><mxCell id="5" style="edgeStyle=orthogonalEdgeStyle;rounded=0;orthogonalLoop=1;jettySize=auto;html=1;startArrow=none;startFill=0;dashed=1;endArrow=block;endFill=0;" edge="1" parent="1" source="4" target="3"><mxGeometry relative="1" as="geometry"/></mxCell><mxCell id="6" value="implements" style="edgeLabel;html=1;align=center;verticalAlign=middle;resizable=0;points=[];" vertex="1" connectable="0" parent="5"><mxGeometry x="-0.2029" relative="1" as="geometry"><mxPoint x="-10" as="offset"/></mxGeometry></mxCell><mxCell id="4" value="SteeringInput&#10;Concrete&#10;Device" style="shape=module;align=left;spacingLeft=20;align=center;verticalAlign=top;" vertex="1" parent="1"><mxGeometry x="410" y="220" width="100" height="50" as="geometry"/></mxCell><mxCell id="8" style="edgeStyle=orthogonalEdgeStyle;rounded=0;orthogonalLoop=1;jettySize=auto;html=1;startArrow=none;startFill=0;endArrow=diamondThin;endFill=1;" edge="1" parent="1" source="7" target="4"><mxGeometry relative="1" as="geometry"/></mxCell><mxCell id="17" value="1" style="edgeLabel;html=1;align=center;verticalAlign=middle;resizable=0;points=[];" vertex="1" connectable="0" parent="8"><mxGeometry x="-0.7344" relative="1" as="geometry"><mxPoint y="-15" as="offset"/></mxGeometry></mxCell><mxCell id="7" value="SteeringInput&#10;Config" style="shape=module;align=left;spacingLeft=20;align=center;verticalAlign=top;" vertex="1" parent="1"><mxGeometry x="550" y="220" width="100" height="50" as="geometry"/></mxCell><mxCell id="10" style="edgeStyle=orthogonalEdgeStyle;rounded=0;orthogonalLoop=1;jettySize=auto;html=1;startArrow=none;startFill=0;endArrow=open;endFill=0;" edge="1" parent="1" source="9" target="4"><mxGeometry relative="1" as="geometry"/></mxCell><mxCell id="11" value="produces" style="edgeLabel;html=1;align=center;verticalAlign=middle;resizable=0;points=[];" vertex="1" connectable="0" parent="10"><mxGeometry x="-0.66" relative="1" as="geometry"><mxPoint y="-20" as="offset"/></mxGeometry></mxCell><mxCell id="9" value="SteeringInput&#10;Factory" style="shape=module;align=left;spacingLeft=20;align=center;verticalAlign=top;" vertex="1" parent="1"><mxGeometry x="410" y="330" width="100" height="50" as="geometry"/></mxCell><mxCell id="15" value="" style="group;rotation=-90;" vertex="1" connectable="0" parent="1"><mxGeometry x="250" y="130" width="60" height="30" as="geometry"/></mxCell><mxCell id="12" value="" style="html=1;rounded=0;rotation=-90;" vertex="1" parent="15"><mxGeometry x="15" y="15" width="30" height="30" as="geometry"/></mxCell><mxCell id="13" value="" style="endArrow=none;html=1;rounded=0;align=center;verticalAlign=top;endFill=0;labelBackgroundColor=none;endSize=2;" edge="1" source="12" target="14" parent="15"><mxGeometry relative="1" as="geometry"/></mxCell><mxCell id="14" value="" style="ellipse;html=1;fontSize=11;align=center;fillColor=none;points=[];aspect=fixed;resizable=0;verticalAlign=bottom;labelPosition=center;verticalLabelPosition=top;flipH=1;rotation=-90;" vertex="1" parent="15"><mxGeometry x="26" y="-15" width="8" height="8" as="geometry"/></mxCell><mxCell id="18" value="Values of the steeering-device are going to be passed to a callbackmethod without any filtering or processing as a dictionary.&#10;The script(s) using the output of the steering-device will need to decide about how to interpret the values!" style="text;align=center;fontStyle=1;verticalAlign=middle;spacingLeft=3;spacingRight=3;strokeColor=none;rotatable=0;points=[[0,0.5],[1,0.5]];portConstraint=eastwest;" vertex="1" parent="1"><mxGeometry y="70" width="730" height="26" as="geometry"/></mxCell><mxCell id="19" value="Text" style="text;html=1;align=center;verticalAlign=middle;resizable=0;points=[];autosize=1;strokeColor=none;fillColor=none;" vertex="1" parent="1"><mxGeometry x="135" y="555" width="50" height="30" as="geometry"/></mxCell></root></mxGraphModel></diagram></mxfile>